<svg width="26" height="24" viewBox="0 0 26 24" fill="none" xmlns="http://www.w3.org/2000/svg">
<path d="M14.2186 1.21875V3.25H15.8192C16.3132 3.25 16.7991 3.38 17.2281 3.62537L19.3243 4.82137C19.3861 4.85712 19.4543 4.875 19.5258 4.875H23.1561C23.4793 4.875 23.7893 5.0034 24.0179 5.23196C24.2464 5.46052 24.3748 5.77052 24.3748 6.09375C24.3748 6.41698 24.2464 6.72698 24.0179 6.95554C23.7893 7.1841 23.4793 7.3125 23.1561 7.3125H22.4622L25.8926 14.937C25.994 15.1626 26.0243 15.4136 25.9796 15.6569C25.9349 15.9001 25.8173 16.124 25.6423 16.2987L24.7811 15.4375L25.6407 16.3004L25.6391 16.3036L25.6358 16.3069L25.6261 16.3166L25.6163 16.3247L25.6001 16.341L25.527 16.406C25.1857 16.692 24.8103 16.9374 24.4122 17.1372C23.6533 17.5175 22.5548 17.875 21.1248 17.875C19.9866 17.8884 18.8609 17.6358 17.8375 17.1372C17.4388 16.9375 17.0647 16.6921 16.7227 16.406L16.6496 16.341L16.6236 16.3166L16.6138 16.3069L16.6073 16.3004V16.2987C16.4324 16.124 16.3148 15.9001 16.2701 15.6569C16.2254 15.4136 16.2557 15.1626 16.3571 14.937L19.7891 7.3125H19.5258C19.0302 7.3125 18.5443 7.18412 18.1153 6.93713L16.0191 5.74113C15.9579 5.70567 15.8883 5.68716 15.8176 5.6875H14.2186V21.125H18.2811C18.6043 21.125 18.9143 21.2534 19.1429 21.482C19.3714 21.7105 19.4998 22.0205 19.4998 22.3438C19.4998 22.667 19.3714 22.977 19.1429 23.2055C18.9143 23.4341 18.6043 23.5625 18.2811 23.5625H7.7186C7.39537 23.5625 7.08537 23.4341 6.85681 23.2055C6.62825 22.977 6.49985 22.667 6.49985 22.3438C6.49985 22.0205 6.62825 21.7105 6.85681 21.482C7.08537 21.2534 7.39537 21.125 7.7186 21.125H11.7811V5.6875H10.1821C10.1114 5.68716 10.0418 5.70567 9.9806 5.74113L7.88597 6.93875C7.45535 7.1825 6.96947 7.3125 6.47385 7.3125H6.2106L9.6426 14.937C9.74397 15.1626 9.77432 15.4136 9.72962 15.6569C9.68493 15.9001 9.56729 16.124 9.39235 16.2987L8.5311 15.4375L9.39072 16.3004L9.3891 16.3036L9.38585 16.3069L9.3761 16.3166L9.3501 16.341L9.27697 16.406C8.93572 16.692 8.56035 16.9374 8.16222 17.1372C7.40335 17.5175 6.30485 17.875 4.87485 17.875C3.73656 17.8884 2.61086 17.6358 1.58747 17.1372C1.18883 16.9375 0.814745 16.6921 0.472723 16.406L0.399598 16.341L0.373598 16.3166L0.363848 16.3069L0.357348 16.3004V16.2987C0.182404 16.124 0.0647713 15.9001 0.0200735 15.6569C-0.0246244 15.4136 0.00572755 15.1626 0.107098 14.937L3.5391 7.3125H2.8436C2.52037 7.3125 2.21037 7.1841 1.98181 6.95554C1.75325 6.72698 1.62485 6.41698 1.62485 6.09375C1.62485 5.77052 1.75325 5.46052 1.98181 5.23196C2.21037 5.0034 2.52037 4.875 2.8436 4.875H6.47385C6.5451 4.87532 6.61517 4.85682 6.67697 4.82137L8.76997 3.62375C9.2006 3.38 9.68647 3.25 10.1821 3.25H11.7811V1.21875C11.7811 0.895517 11.9095 0.585524 12.1381 0.356964C12.3666 0.128404 12.6766 0 12.9998 0C13.3231 0 13.6331 0.128404 13.8616 0.356964C14.0902 0.585524 14.2186 0.895517 14.2186 1.21875ZM19.0042 14.9939C19.4673 15.2133 20.171 15.4375 21.1248 15.4375C22.0787 15.4375 22.7823 15.2133 23.2455 14.9939L21.1248 10.2814L19.0042 14.9939ZM2.75422 14.9939C3.21735 15.2133 3.92097 15.4375 4.87485 15.4375C5.82872 15.4375 6.53235 15.2133 6.99547 14.9939L4.87485 10.2814L2.75422 14.9939Z" fill="#F4B85E"/>
</svg>
